<?xml version="1.0" encoding="UTF-8" standalone="no"?>
<svg
   xmlns:dc="http://purl.org/dc/elements/1.1/"
   xmlns:cc="http://creativecommons.org/ns#"
   xmlns:rdf="http://www.w3.org/1999/02/22-rdf-syntax-ns#"
   xmlns:svg="http://www.w3.org/2000/svg"
   xmlns="http://www.w3.org/2000/svg"
   viewBox="0 0 1280 746.66669"
   height="746.66669"
   width="1280"
   xml:space="preserve"
   id="svg2"
   version="1.1"><metadata
     id="metadata8"><rdf:RDF><cc:Work
         rdf:about=""><dc:format>image/svg+xml</dc:format><dc:type
           rdf:resource="http://purl.org/dc/dcmitype/StillImage" /></cc:Work></rdf:RDF></metadata><defs
     id="defs6"><clipPath
       id="clipPath20"
       clipPathUnits="userSpaceOnUse"><path
         id="path18"
         d="M 0,560 H 960 V 0 H 0 Z" /></clipPath></defs><g
     transform="matrix(1.3333333,0,0,-1.3333333,0,746.66667)"
     id="g10"><path
       id="path12"
       style="fill:#003268;fill-opacity:1;fill-rule:nonzero;stroke:none"
       d="M 0,0 H 960 V 537.079 H 0 Z" /><g
       id="g14"><g
         clip-path="url(#clipPath20)"
         id="g16"><g
           transform="translate(527.3806,238.4641)"
           id="g22"><path
             id="path24"
             style="fill:#f85f6b;fill-opacity:1;fill-rule:nonzero;stroke:none"
             d="m 0,0 c 6.212,0.255 11.274,-5.056 11.283,-11.07 0.009,-6.373 -4.859,-11.332 -11.243,-11.4 -6.367,-0.068 -11.249,5.323 -11.319,11.199 C -11.351,-5.318 -6.103,0.37 0,0" /></g><g
           transform="translate(546.4734,212.227)"
           id="g26"><path
             id="path28"
             style="fill:#f85f6b;fill-opacity:1;fill-rule:nonzero;stroke:none"
             d="m 0,0 c 0.024,-4.104 -3.147,-6.458 -6.196,-6.394 -3.494,0.074 -6.069,2.55 -6.183,6.127 -0.108,3.412 2.434,6.251 6.171,6.3 C -2.605,6.081 -0.114,3.283 0,0" /></g><g
           transform="translate(552.474,202.1066)"
           id="g30"><path
             id="path32"
             style="fill:#f85f6b;fill-opacity:1;fill-rule:nonzero;stroke:none"
             d="m 0,0 c 0.016,-2.769 -2.123,-4.357 -4.18,-4.313 -2.357,0.049 -4.094,1.72 -4.171,4.133 -0.073,2.302 1.642,4.217 4.163,4.25 C -1.757,4.102 -0.077,2.215 0,0" /></g><g
           transform="translate(542.2138,231.5732)"
           id="g34"><path
             id="path36"
             style="fill:#ffffff;fill-opacity:1;fill-rule:nonzero;stroke:none"
             d="m 0,0 c -1.4,4.369 -4.089,7.636 -8.263,9.707 0.309,0.598 0.564,1.141 0.863,1.658 1.214,2.103 2.065,4.368 2.758,6.675 0.476,1.586 0.694,3.257 0.945,4.903 0.19,1.246 0.361,2.515 0.34,3.769 -0.028,1.669 -0.191,3.342 -0.41,4.998 -0.187,1.415 -0.426,2.841 -0.839,4.202 -0.512,1.69 -1.136,3.361 -1.874,4.965 -1.302,2.828 -3.011,5.416 -5.061,7.764 -2.143,2.455 -4.647,4.49 -7.407,6.21 -1.944,1.211 -4.003,2.224 -6.161,2.957 -2.482,0.843 -5.023,1.523 -7.677,1.619 -0.716,0.026 -1.428,0.165 -2.143,0.178 -2.877,0.052 -5.719,-0.229 -8.526,-0.889 -5.532,-1.299 -10.337,-3.952 -14.516,-7.764 -2.174,-1.983 -4.052,-4.248 -5.55,-6.763 -1.424,-2.391 -2.637,-4.911 -3.408,-7.622 -0.701,-2.466 -1.103,-4.955 -1.32,-7.516 -0.223,-2.625 0.088,-5.187 0.368,-7.758 0.135,-1.235 0.555,-2.448 0.932,-3.644 0.418,-1.328 0.885,-2.646 1.419,-3.932 0.772,-1.86 1.818,-3.572 2.942,-5.245 1.263,-1.881 2.751,-3.558 4.375,-5.121 2.575,-2.481 5.499,-4.442 8.744,-5.955 1.954,-0.91 3.98,-1.638 6.056,-2.115 1.645,-0.378 3.315,-0.827 5.049,-0.761 0.956,0.036 1.917,-0.051 2.874,-0.023 1.631,0.047 3.262,0.14 5.096,0.224 0.203,-0.166 0.384,-0.566 0.441,-1.072 0.423,-3.816 2.064,-7.007 4.952,-9.549 0.203,-0.178 0.394,-0.37 0.579,-0.567 0.037,-0.039 0.017,-0.13 0.03,-0.26 -0.2,-0.078 -0.407,-0.198 -0.63,-0.239 -1.806,-0.334 -3.61,-0.671 -5.429,-0.948 -2.803,-0.427 -5.596,-0.363 -8.387,-0.255 -2.027,0.079 -4.07,0.292 -6.049,0.862 -0.947,0.272 -1.916,0.469 -2.88,0.681 -2.171,0.478 -4.227,1.3 -6.26,2.165 -2.985,1.271 -5.767,2.925 -8.377,4.835 -2.925,2.141 -5.569,4.606 -7.901,7.393 -2.878,3.441 -5.213,7.203 -6.99,11.335 -0.866,2.012 -1.579,4.064 -2.148,6.165 -0.4,1.474 -0.555,3.013 -0.909,4.501 -0.826,3.476 -0.578,7.002 -0.53,10.513 0.017,1.218 0.307,2.431 0.475,3.646 0.098,0.71 0.136,1.435 0.315,2.124 0.485,1.872 1.006,3.736 1.56,5.589 1.092,3.652 2.845,6.99 4.915,10.173 2.681,4.12 5.951,7.713 9.797,10.763 2.62,2.078 5.456,3.822 8.469,5.292 2.459,1.199 5.019,2.108 7.636,2.858 1.305,0.374 2.673,0.524 3.996,0.846 3.711,0.903 7.48,0.611 11.232,0.562 1.319,-0.017 2.639,-0.292 3.95,-0.503 1.073,-0.173 2.134,-0.425 3.2,-0.641 3.529,-0.712 6.8,-2.091 10.008,-3.698 C -9.85,64.546 -5.272,60.703 -1.312,56.08 1.317,53.011 3.452,49.609 5.102,45.929 5.948,44.042 6.545,42.042 7.26,40.095 8.231,37.451 8.637,34.68 8.983,31.911 9.178,30.358 9.131,28.767 9.099,27.195 9.054,25.044 9.004,22.886 8.792,20.748 8.648,19.3 8.237,17.878 7.916,16.451 7.723,15.59 7.51,14.729 7.238,13.891 6.757,12.405 6.281,10.913 5.7,9.465 4.62,6.767 3.188,4.247 1.595,1.821 1.19,1.203 0.717,0.629 0.276,0.035 0.184,0.023 0.092,0.012 0,0" /></g><g
           transform="translate(429.2479,287.5542)"
           id="g38"><path
             id="path40"
             style="fill:#ffffff;fill-opacity:1;fill-rule:nonzero;stroke:none"
             d="M 0,0 H -0.276 L -16.702,-8.281 -19.6,4.556 2.208,15.321 H 16.426 V -74.398 H 0 Z" /></g></g></g></g></svg>